<svg width="172" height="42" viewBox="0 0 172 42" fill="none" xmlns="http://www.w3.org/2000/svg">
<path opacity="0.5" d="M40.0652 2.25671L30.2601 36.9917C30.2102 37.1494 30.0108 37.1967 29.8945 37.0863L23.3301 30.8583L28.2492 13.4514C28.2991 13.2937 28.1495 13.1518 27.9833 13.1991L9.63617 17.8662L3.10498 11.6697C2.98865 11.5593 3.03851 11.3701 3.20469 11.3228L39.7993 2.00444C39.9655 1.97291 40.115 2.11481 40.0652 2.25671Z" fill="#00B37E"/>
<path opacity="0.5" d="M23.3297 30.858L20.8037 39.8452C20.7538 40.0029 20.5544 40.0502 20.4381 39.9398L0.0634003 20.6251C-0.0529313 20.5147 -0.00307518 20.3255 0.163113 20.2782L9.63583 17.8658L23.3297 30.858Z" fill="#00B37E"/>
<path d="M28.2484 13.4511L23.3292 30.858L9.63533 17.8659L27.9825 13.1988C28.1487 13.1515 28.2982 13.2934 28.2484 13.4511Z" fill="#00B37E"/>
<path d="M63.0992 29.5H59.3014L59.3264 27.5386H63.0992C64.3985 27.5386 65.4812 27.2679 66.3474 26.7266C67.2135 26.1769 67.8632 25.4107 68.2962 24.4279C68.7376 23.4368 68.9584 22.2791 68.9584 20.9549V19.843C68.9584 18.802 68.8334 17.8775 68.5836 17.0696C68.3337 16.2534 67.9673 15.5663 67.4842 15.0083C67.0011 14.442 66.4098 14.013 65.7102 13.7215C65.0189 13.4301 64.2236 13.2843 63.3241 13.2843H59.2264V11.3104H63.3241C64.5151 11.3104 65.6019 11.5103 66.5847 11.9101C67.5675 12.3015 68.4128 12.872 69.1208 13.6216C69.837 14.3628 70.3867 15.2623 70.7698 16.3201C71.1529 17.3695 71.3445 18.5521 71.3445 19.868V20.9549C71.3445 22.2708 71.1529 23.4576 70.7698 24.5154C70.3867 25.5648 69.8329 26.4601 69.1083 27.2013C68.392 27.9426 67.5258 28.5131 66.5098 28.9128C65.502 29.3043 64.3652 29.5 63.0992 29.5ZM60.5882 11.3104V29.5H58.177V11.3104H60.5882ZM81.3388 11.3104V29.5H78.9651V11.3104H81.3388ZM87.1854 11.3104V13.2843H73.131V11.3104H87.1854ZM96.4926 11.3104H98.8287L104.788 26.1394L110.734 11.3104H113.083L105.687 29.5H103.863L96.4926 11.3104ZM95.7305 11.3104H97.7918L98.1291 22.4041V29.5H95.7305V11.3104ZM111.771 11.3104H113.833V29.5H111.434V22.4041L111.771 11.3104ZM117.106 22.8913V22.604C117.106 21.6295 117.247 20.7259 117.53 19.893C117.814 19.0518 118.222 18.3231 118.755 17.7068C119.288 17.0821 119.933 16.5991 120.691 16.2576C121.449 15.9078 122.299 15.7329 123.24 15.7329C124.189 15.7329 125.043 15.9078 125.801 16.2576C126.567 16.5991 127.217 17.0821 127.75 17.7068C128.291 18.3231 128.703 19.0518 128.986 19.893C129.27 20.7259 129.411 21.6295 129.411 22.604V22.8913C129.411 23.8657 129.27 24.7694 128.986 25.6022C128.703 26.4351 128.291 27.1638 127.75 27.7885C127.217 28.4048 126.571 28.8879 125.813 29.2377C125.064 29.5791 124.214 29.7499 123.265 29.7499C122.315 29.7499 121.462 29.5791 120.704 29.2377C119.946 28.8879 119.296 28.4048 118.755 27.7885C118.222 27.1638 117.814 26.4351 117.53 25.6022C117.247 24.7694 117.106 23.8657 117.106 22.8913ZM119.417 22.604V22.8913C119.417 23.5659 119.496 24.203 119.654 24.8027C119.813 25.394 120.05 25.9187 120.366 26.3768C120.691 26.8349 121.095 27.1972 121.578 27.4637C122.061 27.7219 122.623 27.8509 123.265 27.8509C123.898 27.8509 124.452 27.7219 124.926 27.4637C125.409 27.1972 125.809 26.8349 126.126 26.3768C126.442 25.9187 126.679 25.394 126.838 24.8027C127.004 24.203 127.088 23.5659 127.088 22.8913V22.604C127.088 21.9377 127.004 21.3089 126.838 20.7175C126.679 20.1179 126.438 19.589 126.113 19.1309C125.797 18.6645 125.397 18.2981 124.914 18.0316C124.439 17.7651 123.881 17.6318 123.24 17.6318C122.607 17.6318 122.049 17.7651 121.566 18.0316C121.091 18.2981 120.691 18.6645 120.366 19.1309C120.05 19.589 119.813 20.1179 119.654 20.7175C119.496 21.3089 119.417 21.9377 119.417 22.604ZM134.621 18.8686V29.5H132.31V15.9828H134.496L134.621 18.8686ZM134.071 22.2292L133.109 22.1917C133.117 21.2672 133.255 20.4135 133.521 19.6307C133.788 18.8394 134.163 18.1523 134.646 17.5693C135.129 16.9863 135.703 16.5366 136.37 16.2201C137.044 15.8953 137.79 15.7329 138.606 15.7329C139.272 15.7329 139.872 15.8245 140.405 16.0077C140.938 16.1826 141.392 16.4658 141.767 16.8573C142.15 17.2487 142.441 17.7567 142.641 18.3814C142.841 18.9977 142.941 19.7514 142.941 20.6426V29.5H140.617V20.6176C140.617 19.9097 140.513 19.3433 140.305 18.9186C140.097 18.4855 139.793 18.1732 139.393 17.9816C138.993 17.7817 138.502 17.6818 137.919 17.6818C137.344 17.6818 136.819 17.8025 136.345 18.0441C135.878 18.2856 135.474 18.6187 135.133 19.0435C134.8 19.4683 134.537 19.9555 134.346 20.5052C134.163 21.0465 134.071 21.6212 134.071 22.2292ZM152.061 29.7499C151.12 29.7499 150.266 29.5916 149.5 29.2751C148.742 28.9503 148.088 28.4964 147.538 27.9134C146.997 27.3304 146.581 26.6391 146.289 25.8396C145.998 25.0401 145.852 24.1656 145.852 23.2161V22.6914C145.852 21.592 146.014 20.6134 146.339 19.7556C146.664 18.8894 147.105 18.1565 147.663 17.5569C148.221 16.9572 148.854 16.5033 149.562 16.1951C150.27 15.887 151.003 15.7329 151.761 15.7329C152.727 15.7329 153.56 15.8995 154.259 16.2326C154.967 16.5658 155.546 17.0322 155.996 17.6318C156.446 18.2231 156.779 18.9227 156.995 19.7306C157.212 20.5301 157.32 21.4046 157.32 22.3541V23.391H147.226V21.5046H155.009V21.3297C154.976 20.73 154.851 20.147 154.634 19.5807C154.426 19.0143 154.093 18.5479 153.635 18.1815C153.177 17.815 152.552 17.6318 151.761 17.6318C151.236 17.6318 150.753 17.7442 150.312 17.9691C149.87 18.1857 149.491 18.5105 149.175 18.9436C148.858 19.3766 148.613 19.9055 148.438 20.5301C148.263 21.1548 148.175 21.8752 148.175 22.6914V23.2161C148.175 23.8574 148.263 24.4612 148.438 25.0276C148.621 25.5856 148.883 26.077 149.225 26.5017C149.575 26.9265 149.995 27.2596 150.487 27.5011C150.986 27.7427 151.553 27.8634 152.186 27.8634C153.002 27.8634 153.693 27.6969 154.259 27.3637C154.826 27.0306 155.321 26.585 155.746 26.027L157.145 27.1389C156.854 27.5803 156.483 28.0009 156.033 28.4006C155.584 28.8004 155.03 29.1252 154.372 29.3751C153.722 29.6249 152.952 29.7499 152.061 29.7499ZM163.642 28.1008L167.402 15.9828H169.875L164.454 31.5863C164.329 31.9194 164.162 32.2776 163.954 32.6607C163.754 33.0521 163.496 33.4228 163.179 33.7725C162.863 34.1223 162.48 34.4055 162.03 34.6221C161.589 34.8469 161.06 34.9594 160.443 34.9594C160.26 34.9594 160.027 34.9344 159.744 34.8844C159.461 34.8344 159.261 34.7928 159.144 34.7595L159.132 32.8856C159.198 32.8939 159.302 32.9022 159.444 32.9105C159.594 32.9272 159.698 32.9355 159.756 32.9355C160.281 32.9355 160.727 32.8647 161.093 32.7232C161.459 32.5899 161.768 32.3609 162.017 32.036C162.276 31.7196 162.496 31.2823 162.68 30.7243L163.642 28.1008ZM160.881 15.9828L164.391 26.4767L164.991 28.9128L163.329 29.7623L158.357 15.9828H160.881Z" fill="#E1E1E6"/>
</svg>
